<svg width="40" height="40" viewBox="0 0 40 40" fill="none" xmlns="http://www.w3.org/2000/svg">
<path d="M13.3332 26.6667C12.8748 26.6667 12.4825 26.5035 12.1561 26.1771C11.8297 25.8507 11.6665 25.4584 11.6665 25V15C11.6665 14.5417 11.8297 14.1493 12.1561 13.823C12.4825 13.4966 12.8748 13.3334 13.3332 13.3334H26.6665C27.1248 13.3334 27.5172 13.4966 27.8436 13.823C28.17 14.1493 28.3332 14.5417 28.3332 15V25C28.3332 25.4584 28.17 25.8507 27.8436 26.1771C27.5172 26.5035 27.1248 26.6667 26.6665 26.6667H13.3332V26.6667M19.9998 20.8334L13.3332 16.6667V25V25V25H26.6665V25V25V16.6667L19.9998 20.8334V20.8334M19.9998 19.1667L26.6665 15H13.3332L19.9998 19.1667V19.1667M13.3332 16.6667V15V15V16.6667V25V25V25V25V25V25V16.6667V16.6667" fill="#94A3B8"/>
</svg>
