<svg width="40" height="40" viewBox="0 0 40 40" fill="none" xmlns="http://www.w3.org/2000/svg">
<path d="M20.0002 23.75C21.0418 23.75 21.9272 23.3854 22.6564 22.6562C23.3856 21.9271 23.7502 21.0417 23.7502 20C23.7502 18.9583 23.3856 18.0729 22.6564 17.3438C21.9272 16.6146 21.0418 16.25 20.0002 16.25C18.9585 16.25 18.0731 16.6146 17.3439 17.3438C16.6147 18.0729 16.2502 18.9583 16.2502 20C16.2502 21.0417 16.6147 21.9271 17.3439 22.6562C18.0731 23.3854 18.9585 23.75 20.0002 23.75V23.75M20.0002 22.25C19.3752 22.25 18.8439 22.0312 18.4064 21.5938C17.9689 21.1562 17.7502 20.625 17.7502 20C17.7502 19.375 17.9689 18.8438 18.4064 18.4062C18.8439 17.9688 19.3752 17.75 20.0002 17.75C20.6252 17.75 21.1564 17.9688 21.5939 18.4062C22.0314 18.8438 22.2502 19.375 22.2502 20C22.2502 20.625 22.0314 21.1562 21.5939 21.5938C21.1564 22.0312 20.6252 22.25 20.0002 22.25V22.25M20.0002 26.25C17.9724 26.25 16.1252 25.684 14.4585 24.5521C12.7918 23.4201 11.5835 21.9028 10.8335 20C11.5835 18.0972 12.7918 16.5799 14.4585 15.4479C16.1252 14.316 17.9724 13.75 20.0002 13.75C22.0279 13.75 23.8752 14.316 25.5418 15.4479C27.2085 16.5799 28.4168 18.0972 29.1668 20C28.4168 21.9028 27.2085 23.4201 25.5418 24.5521C23.8752 25.684 22.0279 26.25 20.0002 26.25V26.25M20.0002 20V20V20V20V20V20V20V20V20V20M20.0002 24.5833C21.5696 24.5833 23.0106 24.1701 24.3231 23.3438C25.6356 22.5174 26.6391 21.4028 27.3335 20C26.6391 18.5972 25.6356 17.4826 24.3231 16.6562C23.0106 15.8299 21.5696 15.4167 20.0002 15.4167C18.4307 15.4167 16.9897 15.8299 15.6772 16.6562C14.3647 17.4826 13.3613 18.5972 12.6668 20C13.3613 21.4028 14.3647 22.5174 15.6772 23.3438C16.9897 24.1701 18.4307 24.5833 20.0002 24.5833V24.5833" fill="#94A3B8"/>
</svg>
