<svg width="40" height="40" viewBox="0 0 40 40" fill="none" xmlns="http://www.w3.org/2000/svg">
<path d="M23.4168 20.5L22.2085 19.2917C22.3335 18.6389 22.146 18.0278 21.646 17.4583C21.146 16.8889 20.5002 16.6667 19.7085 16.7917L18.5002 15.5833C18.7363 15.4722 18.9759 15.3889 19.2189 15.3333C19.462 15.2778 19.7224 15.25 20.0002 15.25C21.0418 15.25 21.9272 15.6146 22.6564 16.3438C23.3856 17.0729 23.7502 17.9583 23.7502 19C23.7502 19.2778 23.7224 19.5382 23.6668 19.7812C23.6113 20.0243 23.5279 20.2639 23.4168 20.5V20.5M26.0835 23.125L24.8752 21.9583C25.4029 21.5556 25.8717 21.1146 26.2814 20.6354C26.6911 20.1563 27.0418 19.6111 27.3335 19C26.6391 17.5972 25.6425 16.4826 24.3439 15.6562C23.0453 14.8299 21.5974 14.4167 20.0002 14.4167C19.5974 14.4167 19.2016 14.4444 18.8127 14.5C18.4238 14.5556 18.0418 14.6389 17.6668 14.75L16.3752 13.4583C16.9446 13.2222 17.5279 13.0451 18.1252 12.9271C18.7224 12.809 19.3474 12.75 20.0002 12.75C22.0974 12.75 23.9654 13.3299 25.6043 14.4896C27.2432 15.6493 28.4307 17.1528 29.1668 19C28.8474 19.8194 28.4272 20.5799 27.9064 21.2812C27.3856 21.9826 26.7779 22.5972 26.0835 23.125V23.125M26.5002 28.25L23.0002 24.7917C22.5141 24.9444 22.0245 25.059 21.5314 25.1354C21.0384 25.2118 20.5279 25.25 20.0002 25.25C17.9029 25.25 16.0349 24.6701 14.396 23.5104C12.7571 22.3507 11.5696 20.8472 10.8335 19C11.1252 18.2639 11.4932 17.5799 11.9377 16.9479C12.3821 16.316 12.8891 15.75 13.4585 15.25L11.1668 12.9167L12.3335 11.75L27.6668 27.0833L26.5002 28.25V28.25M14.6252 16.4167C14.2224 16.7778 13.8543 17.1736 13.521 17.6042C13.1877 18.0347 12.9029 18.5 12.6668 19C13.3613 20.4028 14.3578 21.5174 15.6564 22.3438C16.955 23.1701 18.4029 23.5833 20.0002 23.5833C20.2779 23.5833 20.5488 23.566 20.8127 23.5312C21.0766 23.4965 21.3474 23.4583 21.6252 23.4167L20.8752 22.625C20.7224 22.6667 20.5766 22.6979 20.4377 22.7188C20.2988 22.7396 20.1529 22.75 20.0002 22.75C18.9585 22.75 18.0731 22.3854 17.3439 21.6562C16.6147 20.9271 16.2502 20.0417 16.2502 19C16.2502 18.8472 16.2606 18.7014 16.2814 18.5625C16.3022 18.4236 16.3335 18.2778 16.3752 18.125L14.6252 16.4167V16.4167M21.271 18.3542V18.3542V18.3542V18.3542V18.3542V18.3542V18.3542V18.3542V18.3542M18.1252 19.9167V19.9167V19.9167V19.9167V19.9167V19.9167V19.9167V19.9167V19.9167" fill="#94A3B8"/>
</svg>
