<svg width="21" height="20" viewBox="0 0 21 20" fill="none" xmlns="http://www.w3.org/2000/svg">
<path d="M10.5 18.85L9.05 17.55C7.36667 16.0333 5.975 14.725 4.875 13.625C3.775 12.525 2.9 11.5375 2.25 10.6625C1.6 9.7875 1.14583 8.98333 0.8875 8.25C0.629167 7.51667 0.5 6.76667 0.5 6C0.5 4.43333 1.025 3.125 2.075 2.075C3.125 1.025 4.43333 0.5 6 0.5C6.86667 0.5 7.69167 0.683333 8.475 1.05C9.25833 1.41667 9.93333 1.93333 10.5 2.6C11.0667 1.93333 11.7417 1.41667 12.525 1.05C13.3083 0.683333 14.1333 0.5 15 0.5C16.5667 0.5 17.875 1.025 18.925 2.075C19.975 3.125 20.5 4.43333 20.5 6C20.5 6.76667 20.3708 7.51667 20.1125 8.25C19.8542 8.98333 19.4 9.7875 18.75 10.6625C18.1 11.5375 17.225 12.525 16.125 13.625C15.025 14.725 13.6333 16.0333 11.95 17.55L10.5 18.85V18.85" stroke="#94A3B8" stroke-linejoin="bevel"/>
</svg>
