<svg width="28" height="28" viewBox="0 0 28 28" fill="none" xmlns="http://www.w3.org/2000/svg">
<path d="M12.5625 27.0625C10.8125 26.9375 9.17188 26.5 7.64062 25.75C6.10938 25 4.77604 24.0208 3.64062 22.8125C2.50521 21.6042 1.61458 20.2097 0.96875 18.6291C0.322917 17.0485 0 15.3596 0 13.5625C0 11.6899 0.354167 9.93004 1.0625 8.28302C1.77083 6.63601 2.73958 5.19792 3.96875 3.96875C5.19792 2.73958 6.63601 1.77083 8.28302 1.0625C9.93004 0.354167 11.6899 0 13.5625 0C16.8958 0 19.7959 1.05111 22.2626 3.15333C24.7293 5.25555 26.2668 7.89194 26.875 11.0625H22.875C22.4958 9.62577 21.8123 8.34157 20.8245 7.20989C19.8367 6.07822 18.6243 5.22701 17.1875 4.65625V5.09375C17.1875 5.75547 16.9427 6.32194 16.4531 6.79316C15.9635 7.26439 15.3902 7.5 14.7331 7.5H12.3438V9.89691C12.3438 10.2365 12.224 10.526 11.9844 10.7656C11.7448 11.0052 11.4552 11.125 11.1157 11.125H8.71875V13.5H11.0312V17.0938H9.90625L4.1875 11.375C4.125 11.7292 4.06771 12.0833 4.01562 12.4375C3.96354 12.7917 3.9375 13.1458 3.9375 13.5C3.9375 15.9792 4.76042 18.1406 6.40625 19.9844C8.05208 21.8281 10.1042 22.875 12.5625 23.125V27.0625ZM25.0938 26.6875L21.0625 22.625C20.6458 22.8125 20.2135 22.9688 19.7656 23.0938C19.3177 23.2188 18.8542 23.2812 18.375 23.2812C16.6875 23.2812 15.2448 22.6823 14.0469 21.4844C12.849 20.2865 12.25 18.8419 12.25 17.1507C12.25 15.4596 12.849 14.0221 14.0469 12.8382C15.2448 11.6544 16.6893 11.0625 18.3805 11.0625C20.0717 11.0625 21.5092 11.6549 22.693 12.8398C23.8768 14.0247 24.4688 15.4635 24.4688 17.1562C24.4688 17.6354 24.4062 18.1042 24.2812 18.5625C24.1562 19.0208 24 19.4583 23.8125 19.875L27.875 23.9062L25.0938 26.6875ZM18.3746 19.3438C18.9784 19.3438 19.4888 19.1302 19.9058 18.7031C20.3228 18.276 20.5312 17.7606 20.5312 17.1567C20.5312 16.5528 20.3228 16.0424 19.9058 15.6254C19.4888 15.2085 18.9784 15 18.3746 15C17.7707 15 17.2552 15.2085 16.8281 15.6254C16.401 16.0424 16.1875 16.5528 16.1875 17.1567C16.1875 17.7606 16.401 18.276 16.8281 18.7031C17.2552 19.1302 17.7707 19.3438 18.3746 19.3438Z" fill="#94A3B8"/>
</svg>
