<svg width="40" height="40" viewBox="0 0 40 40" fill="none" xmlns="http://www.w3.org/2000/svg">
<path d="M20.0002 20C19.0835 20 18.2988 19.6737 17.646 19.0209C16.9932 18.3681 16.6668 17.5834 16.6668 16.6667C16.6668 15.75 16.9932 14.9653 17.646 14.3125C18.2988 13.6598 19.0835 13.3334 20.0002 13.3334C20.9168 13.3334 21.7016 13.6598 22.3543 14.3125C23.0071 14.9653 23.3335 15.75 23.3335 16.6667C23.3335 17.5834 23.0071 18.3681 22.3543 19.0209C21.7016 19.6737 20.9168 20 20.0002 20V20M13.3335 26.6667V24.3334C13.3335 23.8612 13.455 23.4271 13.6981 23.0313C13.9411 22.6355 14.2641 22.3334 14.6668 22.125C15.5279 21.6945 16.4029 21.3716 17.2918 21.1563C18.1807 20.941 19.0835 20.8334 20.0002 20.8334C20.9168 20.8334 21.8196 20.941 22.7085 21.1563C23.5974 21.3716 24.4724 21.6945 25.3335 22.125C25.7363 22.3334 26.0592 22.6355 26.3022 23.0313C26.5453 23.4271 26.6668 23.8612 26.6668 24.3334V26.6667H13.3335V26.6667M15.0002 25H25.0002V24.3334C25.0002 24.1806 24.962 24.0417 24.8856 23.9167C24.8092 23.7917 24.7085 23.6945 24.5835 23.625C23.8335 23.25 23.0766 22.9688 22.3127 22.7813C21.5488 22.5938 20.7779 22.5 20.0002 22.5C19.2224 22.5 18.4516 22.5938 17.6877 22.7813C16.9238 22.9688 16.1668 23.25 15.4168 23.625C15.2918 23.6945 15.1911 23.7917 15.1147 23.9167C15.0384 24.0417 15.0002 24.1806 15.0002 24.3334V25V25M20.0002 18.3334C20.4585 18.3334 20.8509 18.1702 21.1772 17.8438C21.5036 17.5174 21.6668 17.125 21.6668 16.6667C21.6668 16.2084 21.5036 15.816 21.1772 15.4896C20.8509 15.1632 20.4585 15 20.0002 15C19.5418 15 19.1495 15.1632 18.8231 15.4896C18.4967 15.816 18.3335 16.2084 18.3335 16.6667C18.3335 17.125 18.4967 17.5174 18.8231 17.8438C19.1495 18.1702 19.5418 18.3334 20.0002 18.3334V18.3334M20.0002 16.6667V16.6667V16.6667V16.6667V16.6667V16.6667V16.6667V16.6667V16.6667V16.6667M20.0002 25V25V25V25V25V25V25V25V25V25V25V25V25" fill="#94A3B8"/>
</svg>
