<svg width="40" height="40" viewBox="0 0 40 40" fill="none" xmlns="http://www.w3.org/2000/svg">
<path d="M15.0002 28.75C14.5418 28.75 14.1495 28.5868 13.8231 28.2604C13.4967 27.934 13.3335 27.5417 13.3335 27.0833V18.75C13.3335 18.2917 13.4967 17.8993 13.8231 17.5729C14.1495 17.2465 14.5418 17.0833 15.0002 17.0833H15.8335V15.4167C15.8335 14.2639 16.2397 13.2812 17.0522 12.4688C17.8647 11.6562 18.8474 11.25 20.0002 11.25C21.1529 11.25 22.1356 11.6562 22.9481 12.4688C23.7606 13.2812 24.1668 14.2639 24.1668 15.4167V17.0833H25.0002C25.4585 17.0833 25.8509 17.2465 26.1772 17.5729C26.5036 17.8993 26.6668 18.2917 26.6668 18.75V27.0833C26.6668 27.5417 26.5036 27.934 26.1772 28.2604C25.8509 28.5868 25.4585 28.75 25.0002 28.75H15.0002V28.75M15.0002 27.0833H25.0002V27.0833V27.0833V18.75V18.75V18.75H15.0002V18.75V18.75V27.0833V27.0833V27.0833V27.0833M20.0002 24.5833C20.4585 24.5833 20.8509 24.4201 21.1772 24.0938C21.5036 23.7674 21.6668 23.375 21.6668 22.9167C21.6668 22.4583 21.5036 22.066 21.1772 21.7396C20.8509 21.4132 20.4585 21.25 20.0002 21.25C19.5418 21.25 19.1495 21.4132 18.8231 21.7396C18.4967 22.066 18.3335 22.4583 18.3335 22.9167C18.3335 23.375 18.4967 23.7674 18.8231 24.0938C19.1495 24.4201 19.5418 24.5833 20.0002 24.5833V24.5833M17.5002 17.0833H22.5002V15.4167C22.5002 14.7222 22.2571 14.1319 21.771 13.6458C21.2849 13.1597 20.6946 12.9167 20.0002 12.9167C19.3057 12.9167 18.7154 13.1597 18.2293 13.6458C17.7432 14.1319 17.5002 14.7222 17.5002 15.4167V17.0833V17.0833M15.0002 27.0833V27.0833V27.0833V18.75V18.75V18.75V18.75V18.75V18.75V27.0833V27.0833V27.0833V27.0833V27.0833" fill="#94A3B8"/>
</svg>
